<?xml version="1.0" standalone="no"?>
<!DOCTYPE svg PUBLIC "-//W3C//DTD SVG 20010904//EN"
 "http://www.w3.org/TR/2001/REC-SVG-20010904/DTD/svg10.dtd">
<svg version="1.0" xmlns="http://www.w3.org/2000/svg"
 width="512.000000pt" height="512.000000pt" viewBox="0 0 512.000000 512.000000"
 preserveAspectRatio="xMidYMid meet">
<metadata>
Created by potrace 1.11, written by Peter Selinger 2001-2013
</metadata>
<g transform="translate(0.000000,512.000000) scale(0.100000,-0.100000)"
fill="#000000" stroke="none">
<path d="M4770 4853 c-25 -9 -47 -18 -50 -22 -6 -8 -165 -91 -175 -91 -3 0 -5
8 -4 18 2 9 0 29 -4 45 -9 34 -45 37 -82 5 l-25 -23 23 -27 c14 -16 29 -28 36
-28 24 0 9 -21 -29 -40 -21 -11 -41 -20 -43 -20 -1 0 -3 15 -4 34 -1 44 -9 56
-36 56 -27 0 -67 -26 -67 -43 1 -16 36 -57 49 -57 22 0 10 -17 -24 -33 -45
-22 -54 -21 -48 1 2 10 0 30 -6 44 -8 22 -15 26 -38 22 -15 -3 -36 -13 -47
-24 -18 -18 -18 -19 0 -43 11 -14 28 -30 39 -35 17 -9 18 -11 4 -16 -15 -7
-15 -10 1 -42 19 -37 17 -91 -5 -134 -7 -14 -76 -86 -152 -160 -229 -222 -663
-641 -718 -695 -110 -105 -539 -521 -564 -546 -49 -48 -108 -70 -196 -71 -22
0 -60 -11 -85 -23 -25 -13 -79 -39 -120 -58 -119 -55 -392 -186 -423 -203 -15
-9 -37 -13 -50 -9 -15 4 -18 3 -9 -3 10 -7 2 -14 -30 -30 -24 -11 -106 -50
-182 -87 -76 -36 -171 -81 -210 -100 -39 -18 -138 -65 -221 -105 -82 -40 -186
-89 -230 -110 -44 -21 -129 -62 -190 -91 -60 -29 -112 -53 -115 -54 -3 -1 -59
-28 -125 -59 -66 -32 -166 -80 -222 -106 -77 -37 -107 -57 -122 -81 -29 -47
-10 -113 40 -139 18 -10 148 -7 229 5 14 2 59 7 100 10 110 9 169 14 220 20
25 2 81 7 125 10 44 3 91 8 105 10 14 2 63 6 110 10 47 3 101 8 120 10 221 21
214 21 280 5 50 -12 109 -61 137 -113 20 -36 23 -120 9 -262 -4 -49 -9 -106
-11 -126 -1 -20 -6 -68 -9 -105 -4 -38 -9 -91 -11 -119 -2 -27 -7 -79 -10
-115 -3 -37 -8 -91 -10 -120 -2 -30 -7 -80 -9 -110 -3 -30 -8 -82 -11 -115 -2
-33 -7 -91 -11 -130 -3 -38 -7 -72 -9 -74 -8 -7 25 -60 50 -79 28 -22 72 -22
114 0 25 13 69 100 331 653 26 55 81 170 123 255 41 85 97 202 125 260 49 104
143 299 249 520 295 612 280 578 281 645 1 79 27 135 98 210 54 57 549 567
679 700 33 34 179 184 325 335 366 377 346 358 399 374 39 11 53 11 96 -1 35
-11 50 -12 53 -4 5 14 22 14 22 0 0 -15 39 -49 56 -49 18 0 44 40 44 66 0 24
-48 48 -75 38 -8 -4 -15 -3 -15 1 0 14 44 85 52 85 5 0 7 -4 4 -8 -3 -5 8 -22
24 -37 l30 -29 23 22 c31 30 33 66 2 82 -13 7 -33 10 -44 7 -26 -6 -26 6 -3
55 l18 37 27 -34 c15 -19 34 -35 41 -35 17 0 42 29 49 58 5 20 0 26 -28 38
-19 7 -41 11 -49 8 -9 -3 -16 -2 -16 3 0 5 29 67 65 137 62 122 64 128 50 155
-19 38 -32 42 -85 24z m-219 -309 c40 -24 -77 -294 -127 -294 -8 0 -28 -6 -43
-14 -27 -15 -29 -14 -90 47 l-63 61 16 33 c9 19 16 39 16 46 0 36 210 141 263
131 9 -1 22 -6 28 -10z m-1885 -1878 c101 -100 184 -188 184 -193 0 -6 -59
-129 -131 -274 -173 -347 -417 -843 -595 -1206 -79 -161 -147 -293 -152 -293
-6 0 -17 33 -27 73 -9 39 -28 119 -42 177 -31 133 -103 439 -108 465 -4 14 41
65 175 200 99 99 180 188 180 197 0 9 -67 85 -149 168 -174 177 -129 160 -439
163 -117 1 -202 6 -203 11 -1 9 607 391 696 438 22 11 42 24 45 27 3 4 63 43
134 86 71 44 152 94 180 112 28 17 55 32 59 32 5 1 91 -82 193 -183z m-739
-738 l173 -173 -30 -29 -30 -30 -175 175 -176 175 23 26 c13 15 27 27 32 27 5
1 88 -77 183 -171z"/>
<path d="M2408 2656 l-66 -65 120 -120 c65 -67 122 -121 126 -121 4 0 37 29
72 65 l64 65 -39 41 c-71 73 -196 194 -204 197 -4 1 -37 -27 -73 -62z"/>
<path d="M2072 2321 l-69 -69 123 -123 c118 -118 124 -122 142 -106 10 9 22
14 27 10 4 -5 5 -3 2 3 -4 6 16 33 43 58 l50 47 -124 125 -124 124 -70 -69z"/>
</g>
</svg>
